<?xml version="1.0" encoding="UTF-8" standalone="no"?>
<!DOCTYPE svg PUBLIC "-//W3C//DTD SVG 1.1//EN"
 "http://www.w3.org/Graphics/SVG/1.1/DTD/svg11.dtd">
<!-- Generated by graphviz version 15.1.0 (20260618.0150)
 -->
<!-- Pages: 1 -->
<svg width="236pt" height="150pt"
 viewBox="0.00 0.00 236.00 150.00" xmlns="http://www.w3.org/2000/svg" xmlns:xlink="http://www.w3.org/1999/xlink">
<style>
@media (prefers-color-scheme: dark) {
  svg { background-color: #161A21; }
  polygon[fill="white"] { fill: #161A21; }
  [fill="#fffde7"] { fill: #3A3620; }
  [stroke="#c9bc5b"] { stroke: #C9BC5B; }
  [fill="#6b6420"] { fill: #EBE3A0; }
  [fill="#e7f3ec"] { fill: #16281F; }
  [stroke="#2f7d5b"] { stroke: #4FA97F; }
  [fill="#1b5138"] { fill: #BCE6CF; }
  [fill="#f2f4f7"] { fill: #242832; }
  [stroke="#a9b1bd"] { stroke: #8A93A1; }
  [fill="#495261"] { fill: #C9CFD9; }
  [fill="#fbeaec"] { fill: #331A1F; }
  [stroke="#b23a48"] { stroke: #D0687A; }
  [fill="#7c2430"] { fill: #F3C2CB; }
  [fill="#e2ecfa"] { fill: #152538; }
  [stroke="#2a5fa5"] { stroke: #5E92D6; }
  [fill="#123a6d"] { fill: #C3DAF6; }
  [fill="#ffffff"] { fill: #1E232C; }
  [stroke="#9aa6b8"] { stroke: #7B879B; }
  [fill="#46536b"] { fill: #C4CCDB; }
  [fill="#edeef0"] { fill: #242730; }
  [stroke="#808890"] { stroke: #8890A0; }
  [fill="#404040"] { fill: #C7CDD6; }
  [stroke="#3a424f"] { stroke: #AEB6C2; stroke-opacity: 0.753; }
  [stroke="#c77d3a"] { stroke: #D68C4A; stroke-opacity: 0.753; }
  [fill="#f3f5f8"] { fill: #2A313D; }
  [stroke="#f3f5f8"] { stroke: #2A313D; }
  [stroke="gray"] { stroke: #606875; }
  [fill="gray"] { fill: #8A93A1; }
}
</style>
<g id="graph0" class="graph" transform="scale(1 1) rotate(0) translate(4 146)">
<polygon fill="white" stroke="none" points="-4,4 -4,-146 231.93,-146 231.93,4 -4,4"/>
<g id="clust1" class="cluster">
<title>cluster_cluster_housing</title>
<path fill="none" stroke="gray" stroke-dasharray="5,2" d="M20,-8C20,-8 207.93,-8 207.93,-8 213.93,-8 219.93,-14 219.93,-20 219.93,-20 219.93,-122 219.93,-122 219.93,-128 213.93,-134 207.93,-134 207.93,-134 20,-134 20,-134 14,-134 8,-128 8,-122 8,-122 8,-20 8,-20 8,-14 14,-8 20,-8"/>
<text xml:space="preserve" text-anchor="middle" x="168.81" y="-116.7" font-family="Helvetica,sans-Serif" font-size="14.00" fill="gray">norm_housing</text>
</g>
<!-- norm_housing.MouseWeight -->
<g id="node1" class="node">
<title>norm_housing.MouseWeight</title>
<g id="a_node1"><a xlink:title="→ norm_housing.Mouse&#13;weigh_date &#160;&#160;&#160;&#160;&#160;&#160;&#160;&#160;&#160;&#160;&#13;&#45;&#45;&#45;&#45;&#45;&#45;&#45;&#45;&#45;&#45;&#45;&#45;&#45;&#45;&#45;&#45;&#45;&#45;&#45;&#45;&#45;&#45;&#45;&#45;&#45;&#45;&#45;&#45;&#45;&#45;&#13;weight &#160;&#160;&#160;&#160;&#160;&#160;&#160;&#160;&#160;&#160;&#160;&#160;&#160;&#160;&#13;">
<path fill="#e7f3ec" stroke="#2f7d5b" d="M191.03,-50.28C191.03,-50.28 124.73,-50.28 124.73,-50.28 118.97,-50.28 113.21,-44.52 113.21,-38.76 113.21,-38.76 113.21,-27.24 113.21,-27.24 113.21,-21.48 118.97,-15.72 124.73,-15.72 124.73,-15.72 191.03,-15.72 191.03,-15.72 196.8,-15.72 202.56,-21.48 202.56,-27.24 202.56,-27.24 202.56,-38.76 202.56,-38.76 202.56,-44.52 196.8,-50.28 191.03,-50.28"/>
<text xml:space="preserve" text-anchor="start" x="121.13" y="-28.98" font-family="Helvetica,sans-Serif" text-decoration="underline" font-size="12.00" fill="#1b5138">MouseWeight</text>
</a>
</g>
</g>
<!-- norm_housing.CageAssignment -->
<g id="node2" class="node">
<title>norm_housing.CageAssignment</title>
<g id="a_node2"><a xlink:title="→ norm_housing.Mouse&#13;assignment_date &#160;&#160;&#160;&#160;&#160;&#13;&#45;&#45;&#45;&#45;&#45;&#45;&#45;&#45;&#45;&#45;&#45;&#45;&#45;&#45;&#45;&#45;&#45;&#45;&#45;&#45;&#45;&#45;&#45;&#45;&#45;&#45;&#45;&#45;&#45;&#45;&#13;→ norm_housing.Cage&#13;removal_date=null &#160;&#160;&#160;&#13;">
<path fill="#e7f3ec" stroke="#2f7d5b" d="M200.41,-103.28C200.41,-103.28 115.36,-103.28 115.36,-103.28 109.6,-103.28 103.84,-97.52 103.84,-91.76 103.84,-91.76 103.84,-80.24 103.84,-80.24 103.84,-74.48 109.6,-68.72 115.36,-68.72 115.36,-68.72 200.41,-68.72 200.41,-68.72 206.17,-68.72 211.93,-74.48 211.93,-80.24 211.93,-80.24 211.93,-91.76 211.93,-91.76 211.93,-97.52 206.17,-103.28 200.41,-103.28"/>
<text xml:space="preserve" text-anchor="start" x="111.76" y="-81.97" font-family="Helvetica,sans-Serif" text-decoration="underline" font-size="12.00" fill="#1b5138">CageAssignment</text>
</a>
</g>
</g>
<!-- norm_housing.Mouse -->
<g id="node3" class="node">
<title>norm_housing.Mouse</title>
<g id="a_node3"><a xlink:title="mouse_id &#160;&#160;&#160;&#160;&#160;&#160;&#160;&#160;&#160;&#160;&#160;&#160;&#13;&#45;&#45;&#45;&#45;&#45;&#45;&#45;&#45;&#45;&#45;&#45;&#45;&#45;&#45;&#45;&#45;&#45;&#45;&#45;&#45;&#45;&#45;&#45;&#45;&#45;&#45;&#45;&#45;&#45;&#45;&#13;date_of_birth &#160;&#160;&#160;&#160;&#160;&#160;&#160;&#13;">
<path fill="#e7f3ec" stroke="#2f7d5b" d="M56.32,-50.28C56.32,-50.28 27.52,-50.28 27.52,-50.28 21.76,-50.28 16,-44.52 16,-38.76 16,-38.76 16,-27.24 16,-27.24 16,-21.48 21.76,-15.72 27.52,-15.72 27.52,-15.72 56.32,-15.72 56.32,-15.72 62.08,-15.72 67.84,-21.48 67.84,-27.24 67.84,-27.24 67.84,-38.76 67.84,-38.76 67.84,-44.52 62.08,-50.28 56.32,-50.28"/>
<text xml:space="preserve" text-anchor="start" x="23.92" y="-28.98" font-family="Helvetica,sans-Serif" text-decoration="underline" font-size="12.00" fill="#1b5138">Mouse</text>
</a>
</g>
</g>
<!-- norm_housing.Mouse&#45;&gt;norm_housing.MouseWeight -->
<g id="edge1" class="edge">
<title>norm_housing.Mouse&#45;&gt;norm_housing.MouseWeight</title>
<path fill="none" stroke="#3a424f" stroke-width="0.75" stroke-opacity="0.619608" d="M68.21,-33C81.33,-33 97.73,-33 112.84,-33"/>
</g>
<!-- norm_housing.Mouse&#45;&gt;norm_housing.CageAssignment -->
<g id="edge2" class="edge">
<title>norm_housing.Mouse&#45;&gt;norm_housing.CageAssignment</title>
<path fill="none" stroke="#3a424f" stroke-width="0.75" stroke-opacity="0.619608" d="M68.21,-44.76C83.03,-51.65 102.05,-60.5 118.66,-68.23"/>
</g>
<!-- norm_housing.Cage -->
<g id="node4" class="node">
<title>norm_housing.Cage</title>
<g id="a_node4"><a xlink:title="cage_id &#160;&#160;&#160;&#160;&#160;&#160;&#160;&#160;&#160;&#160;&#160;&#160;&#160;&#13;">
<path fill="#e7f3ec" stroke="#2f7d5b" d="M52.95,-103.28C52.95,-103.28 30.9,-103.28 30.9,-103.28 25.14,-103.28 19.38,-97.52 19.38,-91.76 19.38,-91.76 19.38,-80.24 19.38,-80.24 19.38,-74.48 25.14,-68.72 30.9,-68.72 30.9,-68.72 52.95,-68.72 52.95,-68.72 58.71,-68.72 64.47,-74.48 64.47,-80.24 64.47,-80.24 64.47,-91.76 64.47,-91.76 64.47,-97.52 58.71,-103.28 52.95,-103.28"/>
<text xml:space="preserve" text-anchor="start" x="27.3" y="-81.97" font-family="Helvetica,sans-Serif" text-decoration="underline" font-size="12.00" fill="#1b5138">Cage</text>
</a>
</g>
</g>
<!-- norm_housing.Cage&#45;&gt;norm_housing.CageAssignment -->
<g id="edge3" class="edge">
<title>norm_housing.Cage&#45;&gt;norm_housing.CageAssignment</title>
<path fill="none" stroke="#3a424f" stroke-width="0.75" stroke-dasharray="5,2" stroke-opacity="0.619608" d="M64.89,-86C76.02,-86 90.05,-86 103.78,-86"/>
</g>
</g>
</svg>
