<?xml version="1.0" encoding="UTF-8" standalone="no"?>
<!DOCTYPE svg PUBLIC "-//W3C//DTD SVG 1.1//EN"
 "http://www.w3.org/Graphics/SVG/1.1/DTD/svg11.dtd">
<!-- Generated by graphviz version 15.1.0 (20260618.0150)
 -->
<!-- Pages: 1 -->
<svg width="871pt" height="178pt"
 viewBox="0.00 0.00 871.00 178.00" xmlns="http://www.w3.org/2000/svg" xmlns:xlink="http://www.w3.org/1999/xlink">
<style>
@media (prefers-color-scheme: dark) {
  svg { background-color: #161A21; }
  polygon[fill="white"] { fill: #161A21; }
  [fill="#fffde7"] { fill: #3A3620; }
  [stroke="#c9bc5b"] { stroke: #C9BC5B; }
  [fill="#6b6420"] { fill: #EBE3A0; }
  [fill="#e8f0e9"] { fill: #16281F; }
  [stroke="#3e7a52"] { stroke: #6BBF94; }
  [fill="#28513a"] { fill: #BCE6CF; }
  [fill="#f0f0f1"] { fill: #242832; }
  [stroke="#808285"] { stroke: #9DA0A4; }
  [fill="#5a5c5f"] { fill: #C9CFD9; }
  [fill="#ffede5"] { fill: #331B12; }
  [stroke="#ff5113"] { stroke: #FF7A47; }
  [fill="#b23200"] { fill: #FFC7AE; }
  [fill="#e0f4fc"] { fill: #0F2433; }
  [stroke="#00a0df"] { stroke: #33B8E8; }
  [fill="#00537a"] { fill: #BEE7F9; }
  [fill="#ffffff"] { fill: #1E232C; }
  [stroke="#b9bbbe"] { stroke: #8F959D; }
  [fill="#55585c"] { fill: #C8CED8; }
  [fill="#edeef0"] { fill: #242730; }
  [stroke="#808890"] { stroke: #8890A0; }
  [fill="#404040"] { fill: #C7CDD6; }
  [stroke="#171c39"] { stroke: #AEB6C2; stroke-opacity: 0.753; }
  [stroke="#c77d3a"] { stroke: #D68C4A; stroke-opacity: 0.753; }
  [fill="#f3f5f8"] { fill: #2A313D; }
  [stroke="#f3f5f8"] { stroke: #2A313D; }
  [stroke="#171d3a"] { stroke: #606875; }
  [fill="#171c39"] { fill: #8A93A1; }
}
</style>
<g id="graph0" class="graph" transform="scale(1 1) rotate(0) translate(4 174)">
<polygon fill="white" stroke="none" points="-4,4 -4,-174 867.01,-174 867.01,4 -4,4"/>
<g id="clust1" class="cluster">
<title>cluster_cluster_lab</title>
<path fill="none" stroke="#171d3a" stroke-dasharray="5,2" d="M20,-89C20,-89 125.43,-89 125.43,-89 131.43,-89 137.43,-95 137.43,-101 137.43,-101 137.43,-150 137.43,-150 137.43,-156 131.43,-162 125.43,-162 125.43,-162 20,-162 20,-162 14,-162 8,-156 8,-150 8,-150 8,-101 8,-101 8,-95 14,-89 20,-89"/>
<text xml:space="preserve" text-anchor="middle" x="120.43" y="-144.7" font-family="Helvetica,sans-Serif" font-size="14.00" fill="#171c39">lab</text>
</g>
<g id="clust2" class="cluster">
<title>cluster_cluster_subject</title>
<path fill="none" stroke="#171d3a" stroke-dasharray="5,2" d="M169.43,-89C169.43,-89 217.77,-89 217.77,-89 223.77,-89 229.77,-95 229.77,-101 229.77,-101 229.77,-150 229.77,-150 229.77,-156 223.77,-162 217.77,-162 217.77,-162 169.43,-162 169.43,-162 163.43,-162 157.43,-156 157.43,-150 157.43,-150 157.43,-101 157.43,-101 157.43,-95 163.43,-89 169.43,-89"/>
<text xml:space="preserve" text-anchor="middle" x="200.39" y="-144.7" font-family="Helvetica,sans-Serif" font-size="14.00" fill="#171c39">subject</text>
</g>
<g id="clust3" class="cluster">
<title>cluster_cluster_session</title>
<path fill="none" stroke="#171d3a" stroke-dasharray="5,2" d="M279.02,-89C279.02,-89 330.36,-89 330.36,-89 336.36,-89 342.36,-95 342.36,-101 342.36,-101 342.36,-150 342.36,-150 342.36,-156 336.36,-162 330.36,-162 330.36,-162 279.02,-162 279.02,-162 273.02,-162 267.02,-156 267.02,-150 267.02,-150 267.02,-101 267.02,-101 267.02,-95 273.02,-89 279.02,-89"/>
<text xml:space="preserve" text-anchor="middle" x="311.49" y="-144.7" font-family="Helvetica,sans-Serif" font-size="14.00" fill="#171c39">session</text>
</g>
<g id="clust4" class="cluster">
<title>cluster_cluster_reference</title>
<path fill="none" stroke="#171d3a" stroke-dasharray="5,2" d="M261.77,-8C261.77,-8 347.61,-8 347.61,-8 353.61,-8 359.61,-14 359.61,-20 359.61,-20 359.61,-69 359.61,-69 359.61,-75 353.61,-81 347.61,-81 347.61,-81 261.77,-81 261.77,-81 255.77,-81 249.77,-75 249.77,-69 249.77,-69 249.77,-20 249.77,-20 249.77,-14 255.77,-8 261.77,-8"/>
<text xml:space="preserve" text-anchor="middle" x="323.11" y="-63.7" font-family="Helvetica,sans-Serif" font-size="14.00" fill="#171c39">reference</text>
</g>
<g id="clust5" class="cluster">
<title>cluster_cluster_scan</title>
<path fill="none" stroke="#171d3a" stroke-dasharray="5,2" d="M391.61,-48C391.61,-48 543.52,-48 543.52,-48 549.52,-48 555.52,-54 555.52,-60 555.52,-60 555.52,-109 555.52,-109 555.52,-115 549.52,-121 543.52,-121 543.52,-121 391.61,-121 391.61,-121 385.61,-121 379.61,-115 379.61,-109 379.61,-109 379.61,-60 379.61,-60 379.61,-54 385.61,-48 391.61,-48"/>
<text xml:space="preserve" text-anchor="middle" x="533.27" y="-103.7" font-family="Helvetica,sans-Serif" font-size="14.00" fill="#171c39">scan</text>
</g>
<g id="clust6" class="cluster">
<title>cluster_cluster_imaging</title>
<path fill="none" stroke="#171d3a" stroke-dasharray="5,2" d="M587.52,-48C587.52,-48 843.01,-48 843.01,-48 849.01,-48 855.01,-54 855.01,-60 855.01,-60 855.01,-109 855.01,-109 855.01,-115 849.01,-121 843.01,-121 843.01,-121 587.52,-121 587.52,-121 581.52,-121 575.52,-115 575.52,-109 575.52,-109 575.52,-60 575.52,-60 575.52,-54 581.52,-48 587.52,-48"/>
<text xml:space="preserve" text-anchor="middle" x="823.01" y="-103.7" font-family="Helvetica,sans-Serif" font-size="14.00" fill="#171c39">imaging</text>
</g>
<!-- Lab -->
<g id="node1" class="node">
<title>Lab</title>
<g id="a_node1"><a xlink:title="lab_name &#160;&#160;&#160;&#160;&#160;&#160;&#160;&#160;&#160;&#160;&#160;&#160;&#13;&#45;&#45;&#45;&#45;&#45;&#45;&#45;&#45;&#45;&#45;&#45;&#45;&#45;&#45;&#45;&#45;&#45;&#45;&#45;&#45;&#45;&#45;&#45;&#45;&#45;&#45;&#45;&#45;&#45;&#45;&#13;institution &#160;&#160;&#160;&#160;&#160;&#160;&#160;&#160;&#160;&#13;">
<path fill="#e8f0e9" stroke="#3e7a52" d="M40.57,-131.28C40.57,-131.28 27.52,-131.28 27.52,-131.28 21.76,-131.28 16,-125.52 16,-119.76 16,-119.76 16,-108.24 16,-108.24 16,-102.48 21.76,-96.72 27.52,-96.72 27.52,-96.72 40.57,-96.72 40.57,-96.72 46.33,-96.72 52.09,-102.48 52.09,-108.24 52.09,-108.24 52.09,-119.76 52.09,-119.76 52.09,-125.52 46.33,-131.28 40.57,-131.28"/>
<text xml:space="preserve" text-anchor="start" x="23.92" y="-109.97" font-family="Helvetica,sans-Serif" text-decoration="underline" font-size="12.00" fill="#28513a">Lab</text>
</a>
</g>
</g>
<!-- User -->
<g id="node7" class="node">
<title>User</title>
<g id="a_node7"><a xlink:title="→ Lab&#13;user_name &#160;&#160;&#160;&#160;&#160;&#160;&#160;&#160;&#160;&#160;&#160;&#13;&#45;&#45;&#45;&#45;&#45;&#45;&#45;&#45;&#45;&#45;&#45;&#45;&#45;&#45;&#45;&#45;&#45;&#45;&#45;&#45;&#45;&#45;&#45;&#45;&#45;&#45;&#45;&#45;&#45;&#45;&#13;email &#160;&#160;&#160;&#160;&#160;&#160;&#160;&#160;&#160;&#160;&#160;&#160;&#160;&#160;&#160;&#13;">
<path fill="#e8f0e9" stroke="#3e7a52" d="M117.91,-131.28C117.91,-131.28 99.61,-131.28 99.61,-131.28 93.85,-131.28 88.09,-125.52 88.09,-119.76 88.09,-119.76 88.09,-108.24 88.09,-108.24 88.09,-102.48 93.85,-96.72 99.61,-96.72 99.61,-96.72 117.91,-96.72 117.91,-96.72 123.67,-96.72 129.43,-102.48 129.43,-108.24 129.43,-108.24 129.43,-119.76 129.43,-119.76 129.43,-125.52 123.67,-131.28 117.91,-131.28"/>
<text xml:space="preserve" text-anchor="start" x="96.01" y="-109.97" font-family="Helvetica,sans-Serif" text-decoration="underline" font-size="12.00" fill="#28513a">User</text>
</a>
</g>
</g>
<!-- Lab&#45;&gt;User -->
<g id="edge1" class="edge">
<title>Lab&#45;&gt;User</title>
<path fill="none" stroke="#171c39" stroke-width="0.75" stroke-opacity="0.619608" d="M52.28,-114C62.94,-114 76.68,-114 87.82,-114"/>
</g>
<!-- Subject -->
<g id="node2" class="node">
<title>Subject</title>
<g id="a_node2"><a xlink:title="subject_id &#160;&#160;&#160;&#160;&#160;&#160;&#160;&#160;&#160;&#160;&#13;&#45;&#45;&#45;&#45;&#45;&#45;&#45;&#45;&#45;&#45;&#45;&#45;&#45;&#45;&#45;&#45;&#45;&#45;&#45;&#45;&#45;&#45;&#45;&#45;&#45;&#45;&#45;&#45;&#45;&#45;&#13;→ User&#13;species &#160;&#160;&#160;&#160;&#160;&#160;&#160;&#160;&#160;&#160;&#160;&#160;&#160;&#13;date_of_birth &#160;&#160;&#160;&#160;&#160;&#160;&#160;&#13;">
<path fill="#e8f0e9" stroke="#3e7a52" d="M210.25,-131.28C210.25,-131.28 176.95,-131.28 176.95,-131.28 171.19,-131.28 165.43,-125.52 165.43,-119.76 165.43,-119.76 165.43,-108.24 165.43,-108.24 165.43,-102.48 171.19,-96.72 176.95,-96.72 176.95,-96.72 210.25,-96.72 210.25,-96.72 216.01,-96.72 221.77,-102.48 221.77,-108.24 221.77,-108.24 221.77,-119.76 221.77,-119.76 221.77,-125.52 216.01,-131.28 210.25,-131.28"/>
<text xml:space="preserve" text-anchor="start" x="173.35" y="-109.97" font-family="Helvetica,sans-Serif" text-decoration="underline" font-size="12.00" fill="#28513a">Subject</text>
</a>
</g>
</g>
<!-- Session -->
<g id="node3" class="node">
<title>Session</title>
<g id="a_node3"><a xlink:title="→ Subject&#13;session_date &#160;&#160;&#160;&#160;&#160;&#160;&#160;&#160;&#13;&#45;&#45;&#45;&#45;&#45;&#45;&#45;&#45;&#45;&#45;&#45;&#45;&#45;&#45;&#45;&#45;&#45;&#45;&#45;&#45;&#45;&#45;&#45;&#45;&#45;&#45;&#45;&#45;&#45;&#45;&#13;session_notes &#160;&#160;&#160;&#160;&#160;&#160;&#160;&#13;">
<path fill="#e8f0e9" stroke="#3e7a52" d="M322.84,-131.28C322.84,-131.28 286.54,-131.28 286.54,-131.28 280.78,-131.28 275.02,-125.52 275.02,-119.76 275.02,-119.76 275.02,-108.24 275.02,-108.24 275.02,-102.48 280.78,-96.72 286.54,-96.72 286.54,-96.72 322.84,-96.72 322.84,-96.72 328.6,-96.72 334.36,-102.48 334.36,-108.24 334.36,-108.24 334.36,-119.76 334.36,-119.76 334.36,-125.52 328.6,-131.28 322.84,-131.28"/>
<text xml:space="preserve" text-anchor="start" x="282.94" y="-109.97" font-family="Helvetica,sans-Serif" text-decoration="underline" font-size="12.00" fill="#28513a">Session</text>
</a>
</g>
</g>
<!-- Subject&#45;&gt;Session -->
<g id="edge3" class="edge">
<title>Subject&#45;&gt;Session</title>
<path fill="none" stroke="#171c39" stroke-width="0.75" stroke-opacity="0.619608" d="M222.13,-114C238.16,-114 258.36,-114 274.64,-114"/>
</g>
<!-- Scan -->
<g id="node5" class="node">
<title>Scan</title>
<g id="a_node5"><a xlink:title="→ Session&#13;scan_idx &#160;&#160;&#160;&#160;&#160;&#160;&#160;&#160;&#160;&#160;&#160;&#160;&#13;&#45;&#45;&#45;&#45;&#45;&#45;&#45;&#45;&#45;&#45;&#45;&#45;&#45;&#45;&#45;&#45;&#45;&#45;&#45;&#45;&#45;&#45;&#45;&#45;&#45;&#45;&#45;&#45;&#45;&#45;&#13;→ ScannerModel&#13;depth &#160;&#160;&#160;&#160;&#160;&#160;&#160;&#160;&#160;&#160;&#160;&#160;&#160;&#160;&#160;&#13;">
<path fill="#e8f0e9" stroke="#3e7a52" d="M419.68,-90.28C419.68,-90.28 399.13,-90.28 399.13,-90.28 393.37,-90.28 387.61,-84.52 387.61,-78.76 387.61,-78.76 387.61,-67.24 387.61,-67.24 387.61,-61.48 393.37,-55.72 399.13,-55.72 399.13,-55.72 419.68,-55.72 419.68,-55.72 425.44,-55.72 431.2,-61.48 431.2,-67.24 431.2,-67.24 431.2,-78.76 431.2,-78.76 431.2,-84.52 425.44,-90.28 419.68,-90.28"/>
<text xml:space="preserve" text-anchor="start" x="395.53" y="-68.97" font-family="Helvetica,sans-Serif" text-decoration="underline" font-size="12.00" fill="#28513a">Scan</text>
</a>
</g>
</g>
<!-- Session&#45;&gt;Scan -->
<g id="edge4" class="edge">
<title>Session&#45;&gt;Scan</title>
<path fill="none" stroke="#171c39" stroke-width="0.75" stroke-opacity="0.619608" d="M334.85,-102.36C351.57,-95.68 372.19,-87.46 387.34,-81.41"/>
</g>
<!-- ScannerModel -->
<g id="node4" class="node">
<title>ScannerModel</title>
<g id="a_node4"><a xlink:title="scanner_model &#160;&#160;&#160;&#160;&#160;&#160;&#160;&#13;&#45;&#45;&#45;&#45;&#45;&#45;&#45;&#45;&#45;&#45;&#45;&#45;&#45;&#45;&#45;&#45;&#45;&#45;&#45;&#45;&#45;&#45;&#45;&#45;&#45;&#45;&#45;&#45;&#45;&#45;&#13;manufacturer &#160;&#160;&#160;&#160;&#160;&#160;&#160;&#160;&#13;">
<path fill="#f0f0f1" stroke="#808285" d="M340.09,-50.28C340.09,-50.28 269.29,-50.28 269.29,-50.28 263.53,-50.28 257.77,-44.52 257.77,-38.76 257.77,-38.76 257.77,-27.24 257.77,-27.24 257.77,-21.48 263.53,-15.72 269.29,-15.72 269.29,-15.72 340.09,-15.72 340.09,-15.72 345.85,-15.72 351.61,-21.48 351.61,-27.24 351.61,-27.24 351.61,-38.76 351.61,-38.76 351.61,-44.52 345.85,-50.28 340.09,-50.28"/>
<text xml:space="preserve" text-anchor="start" x="265.69" y="-28.98" font-family="Helvetica,sans-Serif" text-decoration="underline" font-size="12.00" fill="#5a5c5f">ScannerModel</text>
</a>
</g>
</g>
<!-- ScannerModel&#45;&gt;Scan -->
<g id="edge5" class="edge">
<title>ScannerModel&#45;&gt;Scan</title>
<path fill="none" stroke="#171c39" stroke-width="0.75" stroke-dasharray="5,2" stroke-opacity="0.619608" d="M351.34,-50.78C363.88,-55.66 376.87,-60.72 387.29,-64.78"/>
</g>
<!-- ScanInfo -->
<g id="node8" class="node">
<title>ScanInfo</title>
<g id="a_node8"><a xlink:title="→ Scan&#13;&#45;&#45;&#45;&#45;&#45;&#45;&#45;&#45;&#45;&#45;&#45;&#45;&#45;&#45;&#45;&#45;&#45;&#45;&#45;&#45;&#45;&#45;&#45;&#45;&#45;&#45;&#45;&#45;&#45;&#45;&#13;nframes &#160;&#160;&#160;&#160;&#160;&#160;&#160;&#160;&#160;&#160;&#160;&#160;&#160;&#13;fps &#160;&#160;&#160;&#160;&#160;&#160;&#160;&#160;&#160;&#160;&#160;&#160;&#160;&#160;&#160;&#160;&#160;&#13;">
<ellipse fill="#e0f4fc" stroke="#00a0df" cx="507.36" cy="-73" rx="40.16" ry="17.28"/>
<text xml:space="preserve" text-anchor="middle" x="507.36" y="-67.97" font-family="Helvetica,sans-Serif" font-size="12.00" fill="#00537a">ScanInfo</text>
</a>
</g>
</g>
<!-- Scan&#45;&gt;ScanInfo -->
<g id="edge6" class="edge">
<title>Scan&#45;&gt;ScanInfo</title>
<path fill="none" stroke="#171c39" stroke-width="2" stroke-opacity="0.619608" d="M431.23,-73C441.7,-73 454.75,-73 467.01,-73"/>
</g>
<!-- Segmentation -->
<g id="node6" class="node">
<title>Segmentation</title>
<g id="a_node6"><a xlink:title="→ ScanInfo&#13;&#45;&#45;&#45;&#45;&#45;&#45;&#45;&#45;&#45;&#45;&#45;&#45;&#45;&#45;&#45;&#45;&#45;&#45;&#45;&#45;&#45;&#45;&#45;&#45;&#45;&#45;&#45;&#45;&#45;&#45;&#13;num_rois &#160;&#160;&#160;&#160;&#160;&#160;&#160;&#160;&#160;&#160;&#160;&#160;&#13;">
<ellipse fill="#ffede5" stroke="#ff5113" cx="640.87" cy="-73" rx="57.35" ry="17.28"/>
<text xml:space="preserve" text-anchor="middle" x="640.87" y="-67.97" font-family="Helvetica,sans-Serif" font-size="12.00" fill="#b23200">Segmentation</text>
</a>
</g>
</g>
<!-- Fluorescence -->
<g id="node9" class="node">
<title>Fluorescence</title>
<g id="a_node9"><a xlink:title="→ Segmentation&#13;&#45;&#45;&#45;&#45;&#45;&#45;&#45;&#45;&#45;&#45;&#45;&#45;&#45;&#45;&#45;&#45;&#45;&#45;&#45;&#45;&#45;&#45;&#45;&#45;&#45;&#45;&#45;&#45;&#45;&#45;&#13;timestamps &#160;&#160;&#160;&#160;&#160;&#160;&#160;&#160;&#160;&#160;&#13;">
<ellipse fill="#ffede5" stroke="#ff5113" cx="790.62" cy="-73" rx="56.39" ry="17.28"/>
<text xml:space="preserve" text-anchor="middle" x="790.62" y="-67.97" font-family="Helvetica,sans-Serif" font-size="12.00" fill="#b23200">Fluorescence</text>
</a>
</g>
</g>
<!-- Segmentation&#45;&gt;Fluorescence -->
<g id="edge8" class="edge">
<title>Segmentation&#45;&gt;Fluorescence</title>
<path fill="none" stroke="#171c39" stroke-width="2" stroke-opacity="0.619608" d="M698.57,-73C710.13,-73 722.28,-73 733.8,-73"/>
</g>
<!-- User&#45;&gt;Subject -->
<g id="edge2" class="edge">
<title>User&#45;&gt;Subject</title>
<path fill="none" stroke="#171c39" stroke-width="0.75" stroke-dasharray="5,2" stroke-opacity="0.619608" d="M129.81,-114C140.44,-114 153.66,-114 165.22,-114"/>
</g>
<!-- ScanInfo&#45;&gt;Segmentation -->
<g id="edge7" class="edge">
<title>ScanInfo&#45;&gt;Segmentation</title>
<path fill="none" stroke="#171c39" stroke-width="2" stroke-opacity="0.619608" d="M547.82,-73C559.02,-73 571.43,-73 583.43,-73"/>
</g>
</g>
</svg>
