<?xml version="1.0" encoding="UTF-8" standalone="no"?>
<!DOCTYPE svg PUBLIC "-//W3C//DTD SVG 1.1//EN"
 "http://www.w3.org/Graphics/SVG/1.1/DTD/svg11.dtd">
<!-- Generated by graphviz version 15.1.0 (20260618.0150)
 -->
<!-- Pages: 1 -->
<svg width="308pt" height="198pt"
 viewBox="0.00 0.00 308.00 198.00" xmlns="http://www.w3.org/2000/svg" xmlns:xlink="http://www.w3.org/1999/xlink">
<style>
@media (prefers-color-scheme: dark) {
  svg { background-color: #161A21; }
  polygon[fill="white"] { fill: #161A21; }
  [fill="#fffde7"] { fill: #3A3620; }
  [stroke="#c9bc5b"] { stroke: #C9BC5B; }
  [fill="#6b6420"] { fill: #EBE3A0; }
  [fill="#e8f0e9"] { fill: #16281F; }
  [stroke="#3e7a52"] { stroke: #6BBF94; }
  [fill="#28513a"] { fill: #BCE6CF; }
  [fill="#f0f0f1"] { fill: #242832; }
  [stroke="#808285"] { stroke: #9DA0A4; }
  [fill="#5a5c5f"] { fill: #C9CFD9; }
  [fill="#ffede5"] { fill: #331B12; }
  [stroke="#ff5113"] { stroke: #FF7A47; }
  [fill="#b23200"] { fill: #FFC7AE; }
  [fill="#e0f4fc"] { fill: #0F2433; }
  [stroke="#00a0df"] { stroke: #33B8E8; }
  [fill="#00537a"] { fill: #BEE7F9; }
  [fill="#ffffff"] { fill: #1E232C; }
  [stroke="#b9bbbe"] { stroke: #8F959D; }
  [fill="#55585c"] { fill: #C8CED8; }
  [fill="#edeef0"] { fill: #242730; }
  [stroke="#808890"] { stroke: #8890A0; }
  [fill="#404040"] { fill: #C7CDD6; }
  [stroke="#171c39"] { stroke: #AEB6C2; stroke-opacity: 0.753; }
  [stroke="#c77d3a"] { stroke: #D68C4A; stroke-opacity: 0.753; }
  [fill="#f3f5f8"] { fill: #2A313D; }
  [stroke="#f3f5f8"] { stroke: #2A313D; }
  [stroke="#171d3a"] { stroke: #606875; }
  [fill="#171c39"] { fill: #8A93A1; }
}
</style>
<g id="graph0" class="graph" transform="scale(1 1) rotate(0) translate(4 194)">
<polygon fill="white" stroke="none" points="-4,4 -4,-194 304.02,-194 304.02,4 -4,4"/>
<g id="clust1" class="cluster">
<title>cluster_cluster_lab</title>
<path fill="none" stroke="#171d3a" stroke-dasharray="5,2" d="M20,-99C20,-99 77.34,-99 77.34,-99 83.34,-99 89.34,-105 89.34,-111 89.34,-111 89.34,-170 89.34,-170 89.34,-176 83.34,-182 77.34,-182 77.34,-182 20,-182 20,-182 14,-182 8,-176 8,-170 8,-170 8,-111 8,-111 8,-105 14,-99 20,-99"/>
<text xml:space="preserve" text-anchor="middle" x="72.34" y="-164.7" font-family="Helvetica,sans-Serif" font-size="14.00" fill="#171c39">lab</text>
</g>
<g id="clust2" class="cluster">
<title>cluster_cluster_session</title>
<path fill="none" stroke="#171d3a" stroke-dasharray="5,2" d="M121.34,-58C121.34,-58 178.68,-58 178.68,-58 184.68,-58 190.68,-64 190.68,-70 190.68,-70 190.68,-129 190.68,-129 190.68,-135 184.68,-141 178.68,-141 178.68,-141 121.34,-141 121.34,-141 115.34,-141 109.34,-135 109.34,-129 109.34,-129 109.34,-70 109.34,-70 109.34,-64 115.34,-58 121.34,-58"/>
<text xml:space="preserve" text-anchor="middle" x="159.81" y="-123.7" font-family="Helvetica,sans-Serif" font-size="14.00" fill="#171c39">session</text>
</g>
<g id="clust3" class="cluster">
<title>cluster_cluster_reference</title>
<path fill="none" stroke="#171d3a" stroke-dasharray="5,2" d="M20,-8C20,-8 77.34,-8 77.34,-8 83.34,-8 89.34,-14 89.34,-20 89.34,-20 89.34,-79 89.34,-79 89.34,-85 83.34,-91 77.34,-91 77.34,-91 20,-91 20,-91 14,-91 8,-85 8,-79 8,-79 8,-20 8,-20 8,-14 14,-8 20,-8"/>
<text xml:space="preserve" text-anchor="middle" x="52.84" y="-73.7" font-family="Helvetica,sans-Serif" font-size="14.00" fill="#171c39">reference</text>
</g>
<g id="clust4" class="cluster">
<title>cluster_cluster_imaging</title>
<path fill="none" stroke="#171d3a" stroke-dasharray="5,2" d="M222.68,-58C222.68,-58 280.02,-58 280.02,-58 286.02,-58 292.02,-64 292.02,-70 292.02,-70 292.02,-129 292.02,-129 292.02,-135 286.02,-141 280.02,-141 280.02,-141 222.68,-141 222.68,-141 216.68,-141 210.68,-135 210.68,-129 210.68,-129 210.68,-70 210.68,-70 210.68,-64 216.68,-58 222.68,-58"/>
<text xml:space="preserve" text-anchor="middle" x="260.02" y="-123.7" font-family="Helvetica,sans-Serif" font-size="14.00" fill="#171c39">imaging</text>
</g>
<!-- lab -->
<g id="node1" class="node">
<title>lab</title>
<g id="a_node1"><a xlink:title="Collapsed schema: 3 tables">
<polygon fill="#edeef0" stroke="#808890" points="81.34,-150.6 20,-150.6 16,-146.6 16,-107.4 77.34,-107.4 81.34,-111.4 81.34,-150.6"/>
<polyline fill="none" stroke="#808890" points="77.34,-146.6 16,-146.6"/>
<polyline fill="none" stroke="#808890" points="77.34,-146.6 77.34,-107.4"/>
<polyline fill="none" stroke="#808890" points="77.34,-146.6 81.34,-150.6"/>
<text xml:space="preserve" text-anchor="middle" x="48.67" y="-123.97" font-family="Helvetica,sans-Serif" font-size="12.00" fill="#404040">(3 tables)</text>
</a>
</g>
</g>
<!-- session -->
<g id="node2" class="node">
<title>session</title>
<g id="a_node2"><a xlink:title="Collapsed schema: 3 tables">
<polygon fill="#edeef0" stroke="#808890" points="182.68,-109.6 121.34,-109.6 117.34,-105.6 117.34,-66.4 178.68,-66.4 182.68,-70.4 182.68,-109.6"/>
<polyline fill="none" stroke="#808890" points="178.68,-105.6 117.34,-105.6"/>
<polyline fill="none" stroke="#808890" points="178.68,-105.6 178.68,-66.4"/>
<polyline fill="none" stroke="#808890" points="178.68,-105.6 182.68,-109.6"/>
<text xml:space="preserve" text-anchor="middle" x="150.01" y="-82.97" font-family="Helvetica,sans-Serif" font-size="12.00" fill="#404040">(3 tables)</text>
</a>
</g>
</g>
<!-- lab&#45;&gt;session -->
<g id="edge1" class="edge">
<title>lab&#45;&gt;session</title>
<path fill="none" stroke="#171c39" stroke-width="0.75" stroke-dasharray="5,2" stroke-opacity="0.619608" d="M81.65,-115.8C92.99,-111.12 105.75,-105.85 117.09,-101.17"/>
</g>
<!-- imaging -->
<g id="node4" class="node">
<title>imaging</title>
<g id="a_node4"><a xlink:title="Collapsed schema: 4 tables">
<polygon fill="#edeef0" stroke="#808890" points="284.02,-109.6 222.68,-109.6 218.68,-105.6 218.68,-66.4 280.02,-66.4 284.02,-70.4 284.02,-109.6"/>
<polyline fill="none" stroke="#808890" points="280.02,-105.6 218.68,-105.6"/>
<polyline fill="none" stroke="#808890" points="280.02,-105.6 280.02,-66.4"/>
<polyline fill="none" stroke="#808890" points="280.02,-105.6 284.02,-109.6"/>
<text xml:space="preserve" text-anchor="middle" x="251.35" y="-82.97" font-family="Helvetica,sans-Serif" font-size="12.00" fill="#404040">(4 tables)</text>
</a>
</g>
</g>
<!-- session&#45;&gt;imaging -->
<g id="edge2" class="edge">
<title>session&#45;&gt;imaging</title>
<path fill="none" stroke="#171c39" stroke-width="2" stroke-opacity="0.619608" d="M182.99,-88C194.33,-88 207.09,-88 218.43,-88"/>
</g>
<!-- reference -->
<g id="node3" class="node">
<title>reference</title>
<g id="a_node3"><a xlink:title="Collapsed schema: 2 tables">
<polygon fill="#edeef0" stroke="#808890" points="81.34,-59.6 20,-59.6 16,-55.6 16,-16.4 77.34,-16.4 81.34,-20.4 81.34,-59.6"/>
<polyline fill="none" stroke="#808890" points="77.34,-55.6 16,-55.6"/>
<polyline fill="none" stroke="#808890" points="77.34,-55.6 77.34,-16.4"/>
<polyline fill="none" stroke="#808890" points="77.34,-55.6 81.34,-59.6"/>
<text xml:space="preserve" text-anchor="middle" x="48.67" y="-32.98" font-family="Helvetica,sans-Serif" font-size="12.00" fill="#404040">(2 tables)</text>
</a>
</g>
</g>
<!-- reference&#45;&gt;session -->
<g id="edge3" class="edge">
<title>reference&#45;&gt;session</title>
<path fill="none" stroke="#171c39" stroke-width="0.75" stroke-dasharray="5,2" stroke-opacity="0.619608" d="M81.65,-54.1C92.99,-59.81 105.75,-66.23 117.09,-71.93"/>
</g>
<!-- reference&#45;&gt;imaging -->
<g id="edge4" class="edge">
<title>reference&#45;&gt;imaging</title>
<path fill="none" stroke="#171c39" stroke-width="0.75" stroke-opacity="0.619608" d="M81.81,-37.99C110.91,-38.83 154.61,-42.23 190.68,-54 200.09,-57.07 209.67,-61.72 218.32,-66.61"/>
</g>
</g>
</svg>
